<svg width="250" height="200" viewBox="0 0 250 200" fill="none" xmlns="http://www.w3.org/2000/svg">
<path d="M206.25 175H43.75C40.3125 175 37.5 177.812 37.5 181.25V193.75C37.5 197.188 40.3125 200 43.75 200H206.25C209.688 200 212.5 197.188 212.5 193.75V181.25C212.5 177.812 209.688 175 206.25 175ZM231.25 50C220.898 50 212.5 58.3984 212.5 68.75C212.5 71.5234 213.125 74.1016 214.219 76.4844L185.938 93.4375C179.922 97.0312 172.148 95 168.672 88.9062L136.836 33.2031C141.016 29.7656 143.75 24.6094 143.75 18.75C143.75 8.39844 135.352 0 125 0C114.648 0 106.25 8.39844 106.25 18.75C106.25 24.6094 108.984 29.7656 113.164 33.2031L81.3281 88.9062C77.8516 95 70.0391 97.0312 64.0625 93.4375L35.8203 76.4844C36.875 74.1406 37.5391 71.5234 37.5391 68.75C37.5391 58.3984 29.1406 50 18.7891 50C8.4375 50 0 58.3984 0 68.75C0 79.1016 8.39844 87.5 18.75 87.5C19.7656 87.5 20.7812 87.3438 21.7578 87.1875L50 162.5H200L228.242 87.1875C229.219 87.3438 230.234 87.5 231.25 87.5C241.602 87.5 250 79.1016 250 68.75C250 58.3984 241.602 50 231.25 50Z" fill="black" fill-opacity="0.1"/>
</svg>
